<svg xmlns="http://www.w3.org/2000/svg" xmlns:xlink="http://www.w3.org/1999/xlink" id="Слой_1" x="0" y="0" version="1.1" viewBox="0 0 36.17 22.67" xml:space="preserve" style="enable-background:new 0 0 36.17 22.67"><style type="text/css">.st0{fill:#fff}.st1{fill:#c4c5c6}.st2{clip-path:url(#SVGID_2_);fill:#fff}.st3,.st4{clip-path:url(#SVGID_4_);fill:#fff}.st4{clip-path:url(#SVGID_6_)}.st5{clip-path:url(#SVGID_8_);fill:none}.st6,.st7{clip-path:url(#SVGID_10_);fill:none}.st7{clip-path:url(#SVGID_12_)}.st8,.st9{clip-path:url(#SVGID_14_);fill:none}.st9{clip-path:url(#SVGID_16_)}.st10,.st11{clip-path:url(#SVGID_18_);fill:none}.st11{clip-path:url(#SVGID_20_)}.st12,.st13{clip-path:url(#SVGID_22_);fill:none}.st13{clip-path:url(#SVGID_24_)}.st14,.st15{clip-path:url(#SVGID_26_);fill:none}.st15{clip-path:url(#SVGID_28_)}.st16,.st17{clip-path:url(#SVGID_30_);fill:none}.st17{clip-path:url(#SVGID_32_)}.st18,.st19{clip-path:url(#SVGID_34_);fill:none}.st19{clip-path:url(#SVGID_36_)}.st20,.st21{clip-path:url(#SVGID_38_);fill:none}.st21{clip-path:url(#SVGID_40_)}.st22,.st23{clip-path:url(#SVGID_42_);fill:none}.st23{clip-path:url(#SVGID_44_)}.st24,.st25{clip-path:url(#SVGID_46_);fill:none}.st25{clip-path:url(#SVGID_48_)}.st26{clip-path:url(#SVGID_50_);fill:#f6f6f5}.st27,.st28{clip-path:url(#SVGID_52_);fill:none}.st28{clip-path:url(#SVGID_54_)}.st29,.st30{clip-path:url(#SVGID_56_);fill:none}.st30{clip-path:url(#SVGID_58_)}.st31,.st32{clip-path:url(#SVGID_60_);fill:none}.st32{clip-path:url(#SVGID_62_)}.st33{clip-path:url(#SVGID_64_);fill:#f2f2f2}.st34{clip-path:url(#SVGID_66_);fill:none}.st35,.st36{clip-path:url(#SVGID_68_);fill:none}.st36{clip-path:url(#SVGID_70_)}.st37,.st38{clip-path:url(#SVGID_72_);fill:none}.st38{clip-path:url(#SVGID_74_)}.st39,.st40{clip-path:url(#SVGID_76_);fill:#f0f0f0}.st40{clip-path:url(#SVGID_78_)}.st41{clip-path:url(#SVGID_80_);fill:#efefef}.st42{clip-path:url(#SVGID_82_);fill:#eee}.st43{clip-path:url(#SVGID_84_);fill:#ededed}.st44{clip-path:url(#SVGID_86_);fill:#ececec}.st45{clip-path:url(#SVGID_88_);fill:#ecebeb}.st46{clip-path:url(#SVGID_90_);fill:#ebeaeb}.st47{clip-path:url(#SVGID_92_);fill:#eaeaea}.st48{clip-path:url(#SVGID_94_);fill:#e9e9e9}.st49{clip-path:url(#SVGID_96_);fill:#e8e8e8}.st50{clip-path:url(#SVGID_98_);fill:#e7e7e7}.st51{clip-path:url(#SVGID_100_);fill:#e6e6e6}.st52{fill:#cccccb}.st53{fill:#255697}.st54{fill:#d97c17}</style><g id="Rectangle-1_7_"><g><path d="M2.74,22.54c-1.73,0-2.57-0.84-2.57-2.58V1.82c0-0.83,0.84-1.67,1.66-1.67h31.61c1.73,0,2.57,0.84,2.57,2.58 v17.23c0,1.74-0.84,2.58-2.57,2.58H2.74z" class="st0"/><path d="M33.44,0.29c1.65,0,2.43,0.77,2.43,2.44v17.23c0,1.66-0.77,2.44-2.43,2.44H2.74c-1.65,0-2.43-0.77-2.43-2.44 V1.82c0-0.74,0.78-1.53,1.52-1.53H33.44 M33.44,0C31.63,0,12.51,0,1.83,0c-0.9,0-1.81,0.91-1.81,1.81v18.14 c0,1.81,0.9,2.72,2.71,2.72c10.07,0,28.9,0,30.71,0c1.81,0,2.71-0.91,2.71-2.72V2.73C36.15,0.91,35.25,0,33.44,0L33.44,0z" class="st1"/></g></g><g><g><g><g><defs><path id="SVGID_1_" d="M0.04,1.85c0-0.88,0.89-1.77,1.77-1.77h31.64c1.8,0,2.67,0.88,2.67,2.68"/></defs><clipPath id="SVGID_2_"><use xlink:href="#SVGID_1_" style="overflow:visible"/></clipPath><polygon points="5.81 .07 .04 4.67 .04 .07" class="st2"/></g></g><g><g><defs><path id="SVGID_3_" d="M0.04,1.85c0-0.88,0.89-1.77,1.77-1.77h31.64c1.8,0,2.67,0.88,2.67,2.68"/></defs><clipPath id="SVGID_4_"><use xlink:href="#SVGID_3_" style="overflow:visible"/></clipPath><polyline points=".04 4.67 5.81 .07 7.79 .07" class="st3"/></g></g><g><g><defs><path id="SVGID_5_" d="M0.04,1.85c0-0.88,0.89-1.77,1.77-1.77h31.64c1.8,0,2.67,0.88,2.67,2.68"/></defs><clipPath id="SVGID_6_"><use xlink:href="#SVGID_5_" style="overflow:visible"/></clipPath><path d="M0.04,6.25" class="st4"/></g></g><g><g><defs><path id="SVGID_7_" d="M0.04,1.85c0-0.88,0.89-1.77,1.77-1.77h31.64c1.8,0,2.67,0.88,2.67,2.68"/></defs><clipPath id="SVGID_8_"><use xlink:href="#SVGID_7_" style="overflow:visible"/></clipPath><line x1="7.79" x2="9.78" y1=".07" y2=".07" class="st5"/></g></g><g><g><defs><path id="SVGID_9_" d="M0.04,1.85c0-0.88,0.89-1.77,1.77-1.77h31.64c1.8,0,2.67,0.88,2.67,2.68"/></defs><clipPath id="SVGID_10_"><use xlink:href="#SVGID_9_" style="overflow:visible"/></clipPath><line x1=".04" x2=".04" y1="7.84" y2="6.25" class="st6"/></g></g><g><g><defs><path id="SVGID_11_" d="M0.04,1.85c0-0.88,0.89-1.77,1.77-1.77h31.64c1.8,0,2.67,0.88,2.67,2.68"/></defs><clipPath id="SVGID_12_"><use xlink:href="#SVGID_11_" style="overflow:visible"/></clipPath><line x1="9.78" x2="11.76" y1=".07" y2=".07" class="st7"/></g></g><g><g><defs><path id="SVGID_13_" d="M0.04,1.85c0-0.88,0.89-1.77,1.77-1.77h31.64c1.8,0,2.67,0.88,2.67,2.68"/></defs><clipPath id="SVGID_14_"><use xlink:href="#SVGID_13_" style="overflow:visible"/></clipPath><line x1=".04" x2=".04" y1="9.42" y2="7.84" class="st8"/></g></g><g><g><defs><path id="SVGID_15_" d="M0.04,1.85c0-0.88,0.89-1.77,1.77-1.77h31.64c1.8,0,2.67,0.88,2.67,2.68"/></defs><clipPath id="SVGID_16_"><use xlink:href="#SVGID_15_" style="overflow:visible"/></clipPath><line x1="11.76" x2="13.75" y1=".07" y2=".07" class="st9"/></g></g><g><g><defs><path id="SVGID_17_" d="M0.04,1.85c0-0.88,0.89-1.77,1.77-1.77h31.64c1.8,0,2.67,0.88,2.67,2.68"/></defs><clipPath id="SVGID_18_"><use xlink:href="#SVGID_17_" style="overflow:visible"/></clipPath><line x1=".04" x2=".04" y1="11" y2="9.42" class="st10"/></g></g><g><g><defs><path id="SVGID_19_" d="M0.04,1.85c0-0.88,0.89-1.77,1.77-1.77h31.64c1.8,0,2.67,0.88,2.67,2.68"/></defs><clipPath id="SVGID_20_"><use xlink:href="#SVGID_19_" style="overflow:visible"/></clipPath><line x1="13.75" x2="15.73" y1=".07" y2=".07" class="st11"/></g></g><g><g><defs><path id="SVGID_21_" d="M0.04,1.85c0-0.88,0.89-1.77,1.77-1.77h31.64c1.8,0,2.67,0.88,2.67,2.68"/></defs><clipPath id="SVGID_22_"><use xlink:href="#SVGID_21_" style="overflow:visible"/></clipPath><line x1=".04" x2=".04" y1="12.58" y2="11" class="st12"/></g></g><g><g><defs><path id="SVGID_23_" d="M0.04,1.85c0-0.88,0.89-1.77,1.77-1.77h31.64c1.8,0,2.67,0.88,2.67,2.68"/></defs><clipPath id="SVGID_24_"><use xlink:href="#SVGID_23_" style="overflow:visible"/></clipPath><line x1="15.73" x2="17.72" y1=".07" y2=".07" class="st13"/></g></g><g><g><defs><path id="SVGID_25_" d="M0.04,1.85c0-0.88,0.89-1.77,1.77-1.77h31.64c1.8,0,2.67,0.88,2.67,2.68"/></defs><clipPath id="SVGID_26_"><use xlink:href="#SVGID_25_" style="overflow:visible"/></clipPath><line x1=".04" x2=".04" y1="14.17" y2="12.58" class="st14"/></g></g><g><g><defs><path id="SVGID_27_" d="M0.04,1.85c0-0.88,0.89-1.77,1.77-1.77h31.64c1.8,0,2.67,0.88,2.67,2.68"/></defs><clipPath id="SVGID_28_"><use xlink:href="#SVGID_27_" style="overflow:visible"/></clipPath><line x1="17.72" x2="19.71" y1=".07" y2=".07" class="st15"/></g></g><g><g><defs><path id="SVGID_29_" d="M0.04,1.85c0-0.88,0.89-1.77,1.77-1.77h31.64c1.8,0,2.67,0.88,2.67,2.68"/></defs><clipPath id="SVGID_30_"><use xlink:href="#SVGID_29_" style="overflow:visible"/></clipPath><line x1=".04" x2=".04" y1="15.75" y2="14.17" class="st16"/></g></g><g><g><defs><path id="SVGID_31_" d="M0.04,1.85c0-0.88,0.89-1.77,1.77-1.77h31.64c1.8,0,2.67,0.88,2.67,2.68"/></defs><clipPath id="SVGID_32_"><use xlink:href="#SVGID_31_" style="overflow:visible"/></clipPath><line x1="19.71" x2="21.69" y1=".07" y2=".07" class="st17"/></g></g><g><g><defs><path id="SVGID_33_" d="M0.04,1.85c0-0.88,0.89-1.77,1.77-1.77h31.64c1.8,0,2.67,0.88,2.67,2.68"/></defs><clipPath id="SVGID_34_"><use xlink:href="#SVGID_33_" style="overflow:visible"/></clipPath><line x1=".04" x2=".04" y1="17.33" y2="15.75" class="st18"/></g></g><g><g><defs><path id="SVGID_35_" d="M0.04,1.85c0-0.88,0.89-1.77,1.77-1.77h31.64c1.8,0,2.67,0.88,2.67,2.68"/></defs><clipPath id="SVGID_36_"><use xlink:href="#SVGID_35_" style="overflow:visible"/></clipPath><line x1="21.69" x2="23.68" y1=".07" y2=".07" class="st19"/></g></g><g><g><defs><path id="SVGID_37_" d="M0.04,1.85c0-0.88,0.89-1.77,1.77-1.77h31.64c1.8,0,2.67,0.88,2.67,2.68"/></defs><clipPath id="SVGID_38_"><use xlink:href="#SVGID_37_" style="overflow:visible"/></clipPath><line x1=".04" x2=".04" y1="18.92" y2="17.33" class="st20"/></g></g><g><g><defs><path id="SVGID_39_" d="M0.04,1.85c0-0.88,0.89-1.77,1.77-1.77h31.64c1.8,0,2.67,0.88,2.67,2.68"/></defs><clipPath id="SVGID_40_"><use xlink:href="#SVGID_39_" style="overflow:visible"/></clipPath><line x1="23.68" x2="25.66" y1=".07" y2=".07" class="st21"/></g></g><g><g><defs><path id="SVGID_41_" d="M0.04,1.85c0-0.88,0.89-1.77,1.77-1.77h31.64c1.8,0,2.67,0.88,2.67,2.68"/></defs><clipPath id="SVGID_42_"><use xlink:href="#SVGID_41_" style="overflow:visible"/></clipPath><line x1=".04" x2=".04" y1="20.5" y2="18.92" class="st22"/></g></g><g><g><defs><path id="SVGID_43_" d="M0.04,1.85c0-0.88,0.89-1.77,1.77-1.77h31.64c1.8,0,2.67,0.88,2.67,2.68"/></defs><clipPath id="SVGID_44_"><use xlink:href="#SVGID_43_" style="overflow:visible"/></clipPath><line x1="25.66" x2="27.65" y1=".07" y2=".07" class="st23"/></g></g><g><g><defs><path id="SVGID_45_" d="M0.04,1.85c0-0.88,0.89-1.77,1.77-1.77h31.64c1.8,0,2.67,0.88,2.67,2.68"/></defs><clipPath id="SVGID_46_"><use xlink:href="#SVGID_45_" style="overflow:visible"/></clipPath><line x1=".04" x2=".04" y1="22.08" y2="20.5" class="st24"/></g></g><g><g><defs><path id="SVGID_47_" d="M0.04,1.85c0-0.88,0.89-1.77,1.77-1.77h31.64c1.8,0,2.67,0.88,2.67,2.68"/></defs><clipPath id="SVGID_48_"><use xlink:href="#SVGID_47_" style="overflow:visible"/></clipPath><line x1="27.65" x2="29.63" y1=".07" y2=".07" class="st25"/></g></g><g><g><defs><path id="SVGID_49_" d="M0.04,1.85c0-0.88,0.89-1.77,1.77-1.77h31.64c1.8,0,2.67,0.88,2.67,2.68"/></defs><clipPath id="SVGID_50_"><use xlink:href="#SVGID_49_" style="overflow:visible"/></clipPath><polyline points="1.36 22.61 .04 22.61 .04 22.08" class="st26"/></g></g><g><g><defs><path id="SVGID_51_" d="M0.04,1.85c0-0.88,0.89-1.77,1.77-1.77h31.64c1.8,0,2.67,0.88,2.67,2.68"/></defs><clipPath id="SVGID_52_"><use xlink:href="#SVGID_51_" style="overflow:visible"/></clipPath><line x1="29.63" x2="31.62" y1=".07" y2=".07" class="st27"/></g></g><g><g><defs><path id="SVGID_53_" d="M0.04,1.85c0-0.88,0.89-1.77,1.77-1.77h31.64c1.8,0,2.67,0.88,2.67,2.68"/></defs><clipPath id="SVGID_54_"><use xlink:href="#SVGID_53_" style="overflow:visible"/></clipPath><line x1="3.34" x2="1.36" y1="22.61" y2="22.61" class="st28"/></g></g><g><g><defs><path id="SVGID_55_" d="M0.04,1.85c0-0.88,0.89-1.77,1.77-1.77h31.64c1.8,0,2.67,0.88,2.67,2.68"/></defs><clipPath id="SVGID_56_"><use xlink:href="#SVGID_55_" style="overflow:visible"/></clipPath><line x1="31.62" x2="33.61" y1=".07" y2=".07" class="st29"/></g></g><g><g><defs><path id="SVGID_57_" d="M0.04,1.85c0-0.88,0.89-1.77,1.77-1.77h31.64c1.8,0,2.67,0.88,2.67,2.68"/></defs><clipPath id="SVGID_58_"><use xlink:href="#SVGID_57_" style="overflow:visible"/></clipPath><line x1="5.33" x2="3.34" y1="22.61" y2="22.61" class="st30"/></g></g><g><g><defs><path id="SVGID_59_" d="M0.04,1.85c0-0.88,0.89-1.77,1.77-1.77h31.64c1.8,0,2.67,0.88,2.67,2.68"/></defs><clipPath id="SVGID_60_"><use xlink:href="#SVGID_59_" style="overflow:visible"/></clipPath><line x1="33.61" x2="35.59" y1=".07" y2=".07" class="st31"/></g></g><g><g><defs><path id="SVGID_61_" d="M0.04,1.85c0-0.88,0.89-1.77,1.77-1.77h31.64c1.8,0,2.67,0.88,2.67,2.68"/></defs><clipPath id="SVGID_62_"><use xlink:href="#SVGID_61_" style="overflow:visible"/></clipPath><line x1="7.32" x2="5.33" y1="22.61" y2="22.61" class="st32"/></g></g><g><g><defs><path id="SVGID_63_" d="M0.04,1.85c0-0.88,0.89-1.77,1.77-1.77h31.64c1.8,0,2.67,0.88,2.67,2.68"/></defs><clipPath id="SVGID_64_"><use xlink:href="#SVGID_63_" style="overflow:visible"/></clipPath><polyline points="35.59 .07 36.13 .07 36.13 1.23" class="st33"/></g></g><g><g><defs><path id="SVGID_65_" d="M0.04,1.85c0-0.88,0.89-1.77,1.77-1.77h31.64c1.8,0,2.67,0.88,2.67,2.68"/></defs><clipPath id="SVGID_66_"><use xlink:href="#SVGID_65_" style="overflow:visible"/></clipPath><line x1="9.3" x2="7.32" y1="22.61" y2="22.61" class="st34"/></g></g><g><g><defs><path id="SVGID_67_" d="M0.04,1.85c0-0.88,0.89-1.77,1.77-1.77h31.64c1.8,0,2.67,0.88,2.67,2.68"/></defs><clipPath id="SVGID_68_"><use xlink:href="#SVGID_67_" style="overflow:visible"/></clipPath><line x1="36.13" x2="36.13" y1="1.23" y2="2.82" class="st35"/></g></g><g><g><defs><path id="SVGID_69_" d="M0.04,1.85c0-0.88,0.89-1.77,1.77-1.77h31.64c1.8,0,2.67,0.88,2.67,2.68"/></defs><clipPath id="SVGID_70_"><use xlink:href="#SVGID_69_" style="overflow:visible"/></clipPath><line x1="11.29" x2="9.3" y1="22.61" y2="22.61" class="st36"/></g></g><g><g><defs><path id="SVGID_71_" d="M0.04,1.85c0-0.88,0.89-1.77,1.77-1.77h31.64c1.8,0,2.67,0.88,2.67,2.68"/></defs><clipPath id="SVGID_72_"><use xlink:href="#SVGID_71_" style="overflow:visible"/></clipPath><line x1="36.13" x2="36.13" y1="2.82" y2="4.4" class="st37"/></g></g><g><g><defs><path id="SVGID_73_" d="M0.04,1.85c0-0.88,0.89-1.77,1.77-1.77h31.64c1.8,0,2.67,0.88,2.67,2.68"/></defs><clipPath id="SVGID_74_"><use xlink:href="#SVGID_73_" style="overflow:visible"/></clipPath><line x1="13.27" x2="11.29" y1="22.61" y2="22.61" class="st38"/></g></g><g><g><defs><path id="SVGID_75_" d="M0.04,1.85c0-0.88,0.89-1.77,1.77-1.77h31.64c1.8,0,2.67,0.88,2.67,2.68"/></defs><clipPath id="SVGID_76_"><use xlink:href="#SVGID_75_" style="overflow:visible"/></clipPath><path d="M36.13,4.4" class="st39"/></g></g><g><g><defs><path id="SVGID_77_" d="M0.04,1.85c0-0.88,0.89-1.77,1.77-1.77h31.64c1.8,0,2.67,0.88,2.67,2.68"/></defs><clipPath id="SVGID_78_"><use xlink:href="#SVGID_77_" style="overflow:visible"/></clipPath><polyline points="36.13 5.98 15.26 22.61 13.27 22.61" class="st40"/></g></g><g><g><defs><path id="SVGID_79_" d="M0.04,1.85c0-0.88,0.89-1.77,1.77-1.77h31.64c1.8,0,2.67,0.88,2.67,2.68"/></defs><clipPath id="SVGID_80_"><use xlink:href="#SVGID_79_" style="overflow:visible"/></clipPath><polygon points="36.13 7.56 17.24 22.61 15.26 22.61 36.13 5.98" class="st41"/></g></g><g><g><defs><path id="SVGID_81_" d="M0.04,1.85c0-0.88,0.89-1.77,1.77-1.77h31.64c1.8,0,2.67,0.88,2.67,2.68"/></defs><clipPath id="SVGID_82_"><use xlink:href="#SVGID_81_" style="overflow:visible"/></clipPath><polygon points="36.13 9.15 19.23 22.61 17.24 22.61 36.13 7.56" class="st42"/></g></g><g><g><defs><path id="SVGID_83_" d="M0.04,1.85c0-0.88,0.89-1.77,1.77-1.77h31.64c1.8,0,2.67,0.88,2.67,2.68"/></defs><clipPath id="SVGID_84_"><use xlink:href="#SVGID_83_" style="overflow:visible"/></clipPath><polygon points="36.13 10.73 21.22 22.61 19.23 22.61 36.13 9.15" class="st43"/></g></g><g><g><defs><path id="SVGID_85_" d="M0.04,1.85c0-0.88,0.89-1.77,1.77-1.77h31.64c1.8,0,2.67,0.88,2.67,2.68"/></defs><clipPath id="SVGID_86_"><use xlink:href="#SVGID_85_" style="overflow:visible"/></clipPath><polygon points="36.13 12.31 23.2 22.61 21.22 22.61 36.13 10.73" class="st44"/></g></g><g><g><defs><path id="SVGID_87_" d="M0.04,1.85c0-0.88,0.89-1.77,1.77-1.77h31.64c1.8,0,2.67,0.88,2.67,2.68"/></defs><clipPath id="SVGID_88_"><use xlink:href="#SVGID_87_" style="overflow:visible"/></clipPath><polygon points="36.13 13.9 25.19 22.61 23.2 22.61 36.13 12.31" class="st45"/></g></g><g><g><defs><path id="SVGID_89_" d="M0.04,1.85c0-0.88,0.89-1.77,1.77-1.77h31.64c1.8,0,2.67,0.88,2.67,2.68"/></defs><clipPath id="SVGID_90_"><use xlink:href="#SVGID_89_" style="overflow:visible"/></clipPath><polygon points="36.13 15.48 27.17 22.61 25.19 22.61 36.13 13.9" class="st46"/></g></g><g><g><defs><path id="SVGID_91_" d="M0.04,1.85c0-0.88,0.89-1.77,1.77-1.77h31.64c1.8,0,2.67,0.88,2.67,2.68"/></defs><clipPath id="SVGID_92_"><use xlink:href="#SVGID_91_" style="overflow:visible"/></clipPath><polygon points="36.13 17.06 29.16 22.61 27.17 22.61 36.13 15.48" class="st47"/></g></g><g><g><defs><path id="SVGID_93_" d="M0.04,1.85c0-0.88,0.89-1.77,1.77-1.77h31.64c1.8,0,2.67,0.88,2.67,2.68"/></defs><clipPath id="SVGID_94_"><use xlink:href="#SVGID_93_" style="overflow:visible"/></clipPath><polygon points="36.13 18.64 31.14 22.61 29.16 22.61 36.13 17.06" class="st48"/></g></g><g><g><defs><path id="SVGID_95_" d="M0.04,1.85c0-0.88,0.89-1.77,1.77-1.77h31.64c1.8,0,2.67,0.88,2.67,2.68"/></defs><clipPath id="SVGID_96_"><use xlink:href="#SVGID_95_" style="overflow:visible"/></clipPath><polygon points="36.13 20.23 33.13 22.61 31.14 22.61 36.13 18.64" class="st49"/></g></g><g><g><defs><path id="SVGID_97_" d="M0.04,1.85c0-0.88,0.89-1.77,1.77-1.77h31.64c1.8,0,2.67,0.88,2.67,2.68"/></defs><clipPath id="SVGID_98_"><use xlink:href="#SVGID_97_" style="overflow:visible"/></clipPath><polygon points="36.13 21.81 35.12 22.61 33.13 22.61 36.13 20.23" class="st50"/></g></g><g><g><defs><path id="SVGID_99_" d="M0.04,1.85c0-0.88,0.89-1.77,1.77-1.77h31.64c1.8,0,2.67,0.88,2.67,2.68"/></defs><clipPath id="SVGID_100_"><use xlink:href="#SVGID_99_" style="overflow:visible"/></clipPath><polygon points="35.12 22.61 36.13 21.81 36.13 22.61" class="st51"/></g></g></g></g><g><path d="M0.08,1.85c0-0.86,0.88-1.73,1.73-1.73h31.64 M36.09,19.94c0,0.88-0.22,1.55-0.66,1.98 c-0.44,0.44-1.1,0.66-1.98,0.66H2.71c-0.88,0-1.55-0.22-1.98-0.66c-0.44-0.44-0.66-1.1-0.66-1.98 M33.45,0.11 c0.88,0,1.55,0.22,1.98,0.66c0.44,0.44,0.66,1.1,0.66,1.98 M36.17,2.75c0-1.81-0.9-2.71-2.71-2.71l0,0c-1.81,0-20.95,0-31.64,0 c-0.9,0-1.81,0.9-1.81,1.81 M0,19.94c0,1.81,0.9,2.71,2.71,2.71c10.09,0,28.93,0,30.74,0c1.81,0,2.71-0.9,2.71-2.71" class="st52"/></g><g id="Visa"><g id="Rectangle-1_3_"><path d="M36.14,2.79c0-1.81-0.9-2.71-2.71-2.71c-1.81,0-20.92,0-31.59,0c-0.9,0-1.81,0.9-1.81,1.8v2.71h36.11" class="st53"/></g><g id="Rectangle-1_1_"><path d="M0.04,18.13c0,0,0,0,0,1.81s0.9,2.71,2.71,2.71c10.07,0,28.89,0,30.69,0c1.8,0,2.71-0.9,2.71-2.71v-1.81 H0.04z" class="st54"/></g><g id="Shape_16_"><path d="M25.22,6.8c-0.51-0.19-1.3-0.4-2.29-0.4c-2.52,0-4.3,1.3-4.32,3.16c-0.01,1.38,1.27,2.14,2.24,2.6 c0.99,0.47,1.33,0.77,1.32,1.19c-0.01,0.64-0.79,0.93-1.53,0.93c-1.02,0-1.56-0.14-2.4-0.5l-0.33-0.15l-0.36,2.14 c0.6,0.27,1.7,0.5,2.85,0.51c2.69,0,4.43-1.28,4.45-3.27c0.01-1.09-0.67-1.92-2.14-2.6c-0.89-0.44-1.44-0.74-1.43-1.19 c0-0.4,0.46-0.82,1.46-0.82c0.84-0.01,1.44,0.17,1.91,0.37l0.23,0.11L25.22,6.8" class="st53"/></g><g id="Shape_15_"><path d="M31.77,6.57H29.8c-0.61,0-1.07,0.17-1.34,0.79l-3.79,8.77h2.68c0,0,0.44-1.18,0.54-1.44c0.29,0,2.9,0,3.27,0 c0.08,0.34,0.31,1.43,0.31,1.43h2.37L31.77,6.57L31.77,6.57z M28.62,12.75c0.21-0.55,1.02-2.68,1.02-2.68 c-0.01,0.03,0.21-0.55,0.34-0.91l0.17,0.83c0,0,0.49,2.29,0.59,2.76H28.62L28.62,12.75L28.62,12.75L28.62,12.75z" class="st53"/></g><g id="Shape_14_"><path d="M13.41,16.14l1.6-9.57h2.55l-1.6,9.57H13.41z" class="st53"/></g><g id="Shape_13_"><path d="M11.26,6.57l-2.5,6.53l-0.27-1.33c-0.47-1.53-1.92-3.19-3.54-4.02l2.29,8.37h2.7l4.02-9.56L11.26,6.57" class="st53"/></g><g id="Shape_12_"><path d="M6.44,6.57H2.32l-0.03,0.2c3.2,0.79,5.32,2.71,6.21,5.01l-0.9-4.4C7.45,6.77,7,6.59,6.44,6.57" class="st54"/></g></g></svg>